# xmcd CD database file
#
# Track frame offsets:
#	150
#	16657
#	34932
#	55067
#	80430
#	100752
#	124560
#	145357
#	163115
#	189265
#	215715
#	236610
#
# Disc length: 3527 seconds
#
# Revision: 4
# Processed by: cddbd v1.4PL0 Copyright (c) Steve Scherf et al.
# Submitted via: CDex 1.50beta9
#
DISCID=9a0dc50c
DTITLE=Lonnie Brooks - Satisfaction Guaranteed
DYEAR=1991
DGENRE=Blues
TTITLE0=Temporary Insanity
TTITLE1=A Man's Got To To What A Man's Got To Do
TTITLE2=Feast Or Famine
TTITLE3=It's Lying Time Again
TTITLE4=A Little Rock And Roll And Some Country Blues
TTITLE5=Wife For Tonight
TTITLE6=Family Curse
TTITLE7=Horoscope
TTITLE8=Like Father, Like Son
TTITLE9=Holding On To The Memories
TTITLE10=Accident
TTITLE11=If The Price Is Right
EXTD=YEAR: 1991
EXTT0=
EXTT1=
EXTT2=
EXTT3=
EXTT4=
EXTT5=
EXTT6=
EXTT7=
EXTT8=
EXTT9=
EXTT10=
EXTT11=
PLAYORDER=
